<svg xmlns="http://www.w3.org/2000/svg" viewBox="0 0 200 200" width="120" height="120" role="img" aria-label="calendar">
  <defs>
    <linearGradient id="g" x1="0" y1="0" x2="0.35" y2="1"><stop offset="0" stop-color="#FBE1E6"/><stop offset="1" stop-color="#F3C3CD"/></linearGradient>
    <linearGradient id="gl" x1="0" y1="0" x2="0" y2="1"><stop offset="0" stop-color="#fff" stop-opacity=".75"/><stop offset=".55" stop-color="#fff" stop-opacity="0"/></linearGradient>
    <filter id="s" x="-40%" y="-40%" width="180%" height="190%"><feGaussianBlur stdDeviation="9"/></filter>
    <filter id="s2" x="-40%" y="-40%" width="180%" height="190%"><feGaussianBlur stdDeviation="3"/></filter>
  </defs>
  <rect x="42" y="64" width="116" height="116" rx="34" fill="#8A3550" opacity=".30" filter="url(#s)"/>
  <rect x="48" y="52" width="104" height="116" rx="34" fill="#8A3550" opacity=".16" filter="url(#s2)" transform="translate(0 4)"/>
  <rect x="30" y="26" width="140" height="140" rx="40" fill="url(#g)"/>
  <rect x="30" y="26" width="140" height="140" rx="40" fill="url(#gl)"/>
  <rect x="31" y="27" width="138" height="138" rx="39" fill="none" stroke="#fff" stroke-opacity=".85" stroke-width="2"/>
  <g transform="translate(58 54) scale(3.5)" fill="none" stroke="#8A3550" stroke-width="1.55" stroke-linecap="round" stroke-linejoin="round"><rect x="3.500" y="5" width="17" height="15" rx="2.500"/><path d="M3.500 9.500h17M8 3.500v3M16 3.500v3"/><path d="M8 13.500h.01M12 13.500h.01M16 13.500h.01M8 16.800h.01M12 16.800h.01"/></g>
</svg>
